<svg width="57" height="56" viewBox="0 0 57 56" fill="none" xmlns="http://www.w3.org/2000/svg">
<circle cx="28.7548" cy="27.9823" r="27.9716" fill="#506EF5"/>
<g clip-path="url(#clip0)">
<path d="M35.4136 25.6328H22.54L19.8569 37.1157C19.7331 37.6562 19.7326 38.2177 19.8554 38.7584C19.9783 39.2991 20.2214 39.8052 20.5666 40.2392C20.9119 40.6731 21.3504 41.0237 21.8497 41.2649C22.349 41.5061 22.8962 41.6318 23.4507 41.6326H34.5275C35.082 41.6318 35.6292 41.5061 36.1285 41.2649C36.6278 41.0237 37.0663 40.6731 37.4116 40.2392C37.7568 39.8052 37.9999 39.2991 38.1227 38.7584C38.2456 38.2177 38.2451 37.6562 38.1213 37.1157L35.4136 25.6328ZM30.4906 35.0727C30.2383 35.3904 29.8877 35.6155 29.4937 35.7127V36.7096H29.2475H28.8168H28.5583V35.885H28.1399L27.7583 35.8234L27.3891 35.725L27.0568 35.4788C27.0818 35.2839 27.1188 35.0907 27.1676 34.9004C27.2168 34.7034 27.2783 34.4942 27.3522 34.2727C27.5697 34.3724 27.7964 34.4507 28.0291 34.5065C28.2181 34.5553 28.4124 34.5801 28.6076 34.5804C28.8168 34.5873 29.0244 34.5407 29.2106 34.445C29.2782 34.4017 29.3331 34.3414 29.3699 34.27C29.4066 34.1987 29.4238 34.119 29.4199 34.0388C29.4236 33.9666 29.4086 33.8946 29.3762 33.8299C29.3439 33.7652 29.2953 33.7099 29.2352 33.6696C29.0935 33.5701 28.9407 33.4875 28.7799 33.4235L28.3614 33.2512C28.2089 33.1873 28.0609 33.1133 27.9183 33.0296C27.7771 32.951 27.6519 32.8467 27.5491 32.7219C27.4458 32.5961 27.3627 32.4549 27.303 32.3035C27.2138 32.02 27.1929 31.7195 27.2421 31.4264C27.2913 31.1334 27.4092 30.8561 27.586 30.6173C27.8596 30.3274 28.2247 30.1406 28.6199 30.0881V29.3743H28.8783H29.3091H29.5552V30.0635C29.7418 30.0844 29.9268 30.1173 30.1091 30.162L30.7121 30.3466C30.6652 30.736 30.5529 31.1146 30.3798 31.4666C30.2118 31.3903 30.0392 31.3245 29.8629 31.2696C29.6414 31.216 29.4139 31.1912 29.186 31.1958H28.9768C28.9161 31.1816 28.8529 31.1816 28.7922 31.1958C28.739 31.227 28.6929 31.2689 28.6568 31.3189C28.6352 31.3827 28.6352 31.4519 28.6568 31.5158C28.651 31.5822 28.6628 31.649 28.6908 31.7094C28.7189 31.7699 28.7623 31.8219 28.8168 31.8604C28.9248 31.9339 29.0404 31.9958 29.1614 32.045L29.6045 32.2173C29.7828 32.2761 29.9558 32.3503 30.1214 32.4389C30.2721 32.5245 30.409 32.6324 30.5275 32.7589C30.6566 32.8932 30.7571 33.0523 30.8229 33.2265C30.9255 33.5196 30.9578 33.8327 30.9172 34.1405C30.8766 34.4484 30.7642 34.7424 30.5891 34.9988L30.4906 35.0727Z" fill="white"/>
<path d="M38.8236 19.1964C38.7822 19.0227 38.7036 18.8601 38.5931 18.7198C38.4825 18.5796 38.3428 18.465 38.1836 18.3842L35.7221 17.1534C35.5769 17.0789 35.4184 17.034 35.2557 17.0213C35.093 17.0086 34.9294 17.0284 34.7744 17.0796L31.5745 18.1503L29.5684 17.1534C29.3966 17.0668 29.2069 17.0217 29.0145 17.0217C28.8222 17.0217 28.6325 17.0668 28.4607 17.1534L26.4546 18.1503L23.2546 17.0796C23.0996 17.0284 22.9361 17.0086 22.7734 17.0213C22.6107 17.034 22.4521 17.0789 22.3069 17.1534L19.8454 18.3842C19.6725 18.4563 19.5182 18.5669 19.3945 18.7077C19.2708 18.8485 19.1809 19.0156 19.1316 19.1964C19.0896 19.3717 19.0865 19.5539 19.1227 19.7305C19.1588 19.907 19.2333 20.0734 19.3408 20.218L21.8023 23.1718H36.1406L38.6021 20.218C38.7117 20.0744 38.7884 19.9084 38.8267 19.7319C38.8649 19.5553 38.8639 19.3725 38.8236 19.1964Z" fill="white"/>
</g>
<defs>
<clipPath id="clip0">
<rect width="29.538" height="36.9225" fill="white" transform="translate(14.209 14.5557)"/>
</clipPath>
</defs>
</svg>
