<svg width="57" height="57" viewBox="0 0 57 57" fill="none" xmlns="http://www.w3.org/2000/svg">
<circle cx="28.7548" cy="28.5663" r="27.9716" fill="#506EF5"/>
<path d="M32.9357 20.9102H30.5802C30.5802 20.5978 30.4561 20.2983 30.2352 20.0774C30.0143 19.8565 29.7148 19.7325 29.4024 19.7325H27.0469C26.7346 19.7325 26.435 19.8565 26.2141 20.0774C25.9933 20.2983 25.8692 20.5978 25.8692 20.9102H23.5137C23.5137 19.9731 23.8859 19.0744 24.5485 18.4118C25.2112 17.7492 26.1098 17.377 27.0469 17.377H29.4024C30.3395 17.377 31.2382 17.7492 31.9008 18.4118C32.5634 19.0744 32.9357 19.9731 32.9357 20.9102Z" fill="white"/>
<path d="M28.2246 32.6875C28.537 32.6875 28.8365 32.5634 29.0574 32.3426C29.2783 32.1217 29.4024 31.8221 29.4024 31.5098H27.0469C27.0469 31.8221 27.171 32.1217 27.3918 32.3426C27.6127 32.5634 27.9123 32.6875 28.2246 32.6875Z" fill="white"/>
<path d="M40.0023 24.4444V29.1554H16.4473V24.4444C16.4473 23.5073 16.8195 22.6086 17.4821 21.946C18.1447 21.2834 19.0434 20.9111 19.9805 20.9111H23.5138V22.0889C23.5138 22.4012 23.6379 22.7008 23.8587 22.9217C24.0796 23.1425 24.3792 23.2666 24.6915 23.2666C25.0039 23.2666 25.3034 23.1425 25.5243 22.9217C25.7452 22.7008 25.8693 22.4012 25.8693 22.0889V20.9111H30.5803V22.0889C30.5803 22.4012 30.7044 22.7008 30.9252 22.9217C31.1461 23.1425 31.4457 23.2666 31.758 23.2666C32.0704 23.2666 32.3699 23.1425 32.5908 22.9217C32.8117 22.7008 32.9358 22.4012 32.9358 22.0889V20.9111H36.469C37.4061 20.9111 38.3048 21.2834 38.9674 21.946C39.63 22.6086 40.0023 23.5073 40.0023 24.4444Z" fill="white"/>
<path d="M31.758 31.5098C31.758 32.4468 31.3858 33.3455 30.7232 34.0082C30.0605 34.6708 29.1618 35.043 28.2248 35.043C27.2877 35.043 26.389 34.6708 25.7264 34.0082C25.0638 33.3455 24.6915 32.4468 24.6915 31.5098H16.4473V36.2208C16.4473 37.1578 16.8195 38.0565 17.4821 38.7192C18.1447 39.3818 19.0434 39.754 19.9805 39.754H36.469C37.4061 39.754 38.3048 39.3818 38.9674 38.7192C39.63 38.0565 40.0023 37.1578 40.0023 36.2208V31.5098H31.758Z" fill="white"/>
</svg>
