<svg width="57" height="57" viewBox="0 0 57 57" fill="none" xmlns="http://www.w3.org/2000/svg">
<circle cx="28.7548" cy="28.6903" r="27.9716" fill="#506EF5"/>
<path d="M42.0213 24.8541V23.5754C42.0213 22.558 41.6171 21.5822 40.8977 20.8628C40.1783 20.1434 39.2026 19.7393 38.1852 19.7393H20.2834C19.266 19.7393 18.2902 20.1434 17.5708 20.8628C16.8514 21.5822 16.4473 22.558 16.4473 23.5754V24.8541H42.0213Z" fill="white"/>
<path d="M16.4473 27.4111V33.8046C16.4473 34.822 16.8514 35.7978 17.5708 36.5172C18.2902 37.2366 19.266 37.6407 20.2834 37.6407H38.1852C39.2026 37.6407 40.1783 37.2366 40.8977 36.5172C41.6171 35.7978 42.0213 34.822 42.0213 33.8046V27.4111H16.4473ZM30.513 35.0833C30.0072 35.0833 29.5127 34.9333 29.0922 34.6523C28.6716 34.3713 28.3438 33.9719 28.1502 33.5046C27.9567 33.0373 27.906 32.5231 28.0047 32.027C28.1034 31.5309 28.347 31.0752 28.7046 30.7176C29.0623 30.3599 29.518 30.1164 30.014 30.0177C30.5101 29.919 31.0243 29.9696 31.4916 30.1632C31.959 30.3568 32.3584 30.6846 32.6394 31.1051C32.9204 31.5257 33.0704 32.0201 33.0704 32.5259C33.0704 33.2042 32.8009 33.8547 32.3213 34.3343C31.8417 34.8139 31.1912 35.0833 30.513 35.0833ZM34.3491 35.0833C33.8988 35.0787 33.4576 34.9552 33.0704 34.7253C33.452 34.4989 33.7681 34.177 33.9877 33.7914C34.2073 33.4058 34.3227 32.9697 34.3227 32.5259C34.3227 32.0822 34.2073 31.6461 33.9877 31.2605C33.7681 30.8749 33.452 30.553 33.0704 30.3266C33.4098 30.1252 33.7912 30.0051 34.1848 29.9758C34.5783 29.9464 34.9733 30.0085 35.3389 30.1572C35.7045 30.3059 36.0306 30.5372 36.2919 30.833C36.5532 31.1288 36.7424 31.481 36.8449 31.8622C36.9474 32.2433 36.9602 32.643 36.8825 33.0299C36.8047 33.4168 36.6385 33.7805 36.3968 34.0924C36.155 34.4044 35.8444 34.6562 35.4892 34.8281C35.1339 35 34.7437 35.0874 34.3491 35.0833Z" fill="white"/>
</svg>
