<svg width="842" height="484" viewBox="0 0 842 484" fill="none" xmlns="http://www.w3.org/2000/svg">
<path d="M188.642 337.828L269.955 593.27M188.642 337.828L418.26 390.558M188.642 337.828L50.4634 376.133M269.955 593.27L45.2911 377.566L50.4634 376.133M269.955 593.27L418.26 390.558M269.955 593.27L627.417 587.748M418.26 390.558L50.4634 376.133M418.26 390.558L529.634 458.365M418.26 390.558L718.806 278.393M418.26 390.558L558.142 167.989M529.634 458.365L718.806 278.393M529.634 458.365L627.417 587.748M718.806 278.393L558.142 167.989M718.806 278.393L879.718 477.954M718.806 278.393L627.417 587.748M718.806 278.393L895.647 286.505M718.806 278.393L732.085 158.584M718.806 278.393L927.182 44.1091M718.806 278.393L1062.84 109.712M558.142 167.989L732.085 158.584M879.718 477.954L901.52 695.701L627.417 587.748M879.718 477.954L627.417 587.748M879.718 477.954L1011.35 291.529M879.718 477.954L895.647 286.505M1011.35 291.529L895.647 286.505M1011.35 291.529L1125.39 74.8471L1062.84 109.712M1011.35 291.529L1062.84 109.712M732.085 158.584L927.182 44.1091M927.182 44.1091L1062.84 109.712" stroke="#21253F"/>
</svg>
