<svg width="50" height="51" viewBox="0 0 50 51" fill="none" xmlns="http://www.w3.org/2000/svg">
<path d="M31.7158 32.7789L28.0261 32.4581C27.7052 32.4046 27.3844 32.1907 27.2774 31.9233L25.8336 28.5009C25.5127 27.7523 24.4967 27.7523 24.1759 28.5009L22.7321 31.9233C22.6251 32.2442 22.3043 32.4581 21.9834 32.4581L18.2937 32.7789C17.4916 32.8324 17.1707 33.8484 17.7589 34.3831L20.5931 36.7895C20.8605 37.0034 20.9674 37.3777 20.8605 37.6986L20.0049 41.2814C19.8444 42.0835 20.6466 42.6717 21.3417 42.2439L24.4967 40.3188C24.7641 40.1584 25.1384 40.1584 25.4593 40.3188L28.6143 42.2439C29.3094 42.6717 30.165 42.03 29.9511 41.2814L29.0955 37.6986C29.0421 37.3777 29.149 37.0034 29.3629 36.7895L32.1971 34.3831C32.8388 33.8484 32.4644 32.8324 31.7158 32.7789Z" fill="#6C5DD3"/>
<path d="M32.784 17.5945C32.4632 14.6534 29.9499 12.4609 27.0088 12.4609H22.9447C20.0036 12.4609 17.5438 14.6534 17.1695 17.5945L16.5812 22.3537C16.5278 22.942 16.9021 23.5302 17.4903 23.6906C19.8432 24.1719 22.3565 24.4392 24.9233 24.4392C27.49 24.4392 30.0568 24.1719 32.3562 23.6906C32.9445 23.5836 33.3722 22.9954 33.2653 22.3537L32.784 17.5945Z" fill="#6C5DD3"/>
<path d="M24.9747 11.0158C28.0166 11.0158 30.4826 8.5498 30.4826 5.50788C30.4826 2.46596 28.0166 0 24.9747 0C21.9328 0 19.4668 2.46596 19.4668 5.50788C19.4668 8.5498 21.9328 11.0158 24.9747 11.0158Z" fill="#6C5DD3"/>
<path d="M10.4326 38.8232H6.36854C3.42744 38.8232 0.967609 41.0157 0.593287 43.9568L0.00506672 48.716C-0.0484078 49.3043 0.325914 49.8925 0.914134 50.0529C3.26701 50.5342 5.78032 50.8015 8.3471 50.8015C10.9674 50.8015 13.4807 50.5342 15.7801 50.0529C16.3683 49.946 16.7961 49.3577 16.6891 48.716L16.1009 43.9568C15.8335 41.0157 13.3737 38.8232 10.4326 38.8232Z" fill="#6C5DD3"/>
<path d="M8.3985 37.3781C11.4404 37.3781 13.9064 34.9121 13.9064 31.8702C13.9064 28.8283 11.4404 26.3623 8.3985 26.3623C5.35659 26.3623 2.89062 28.8283 2.89062 31.8702C2.89062 34.9121 5.35659 37.3781 8.3985 37.3781Z" fill="#6C5DD3"/>
<path d="M49.4149 43.9568C49.094 41.0157 46.5807 38.8232 43.6396 38.8232H39.5756C36.6345 38.8232 34.1746 41.0157 33.8003 43.9568L33.2121 48.716C33.1586 49.3043 33.5329 49.8925 34.1212 50.0529C36.474 50.5342 38.9873 50.8015 41.5541 50.8015C44.1744 50.8015 46.6877 50.5342 48.9871 50.0529C49.5753 49.946 50.0031 49.3577 49.8962 48.716L49.4149 43.9568Z" fill="#6C5DD3"/>
<path d="M41.5567 37.3781C44.5986 37.3781 47.0646 34.9121 47.0646 31.8702C47.0646 28.8283 44.5986 26.3623 41.5567 26.3623C38.5148 26.3623 36.0488 28.8283 36.0488 31.8702C36.0488 34.9121 38.5148 37.3781 41.5567 37.3781Z" fill="#6C5DD3"/>
</svg>
