<svg width="53" height="53" viewBox="0 0 53 53" fill="none" xmlns="http://www.w3.org/2000/svg">
<path d="M13.25 9.9375V6.625C13.25 2.96634 16.2163 0 19.875 0H33.125C36.7837 0 39.75 2.96634 39.75 6.625V9.9375H36.4375V6.625C36.4375 4.80054 34.9527 3.3125 33.125 3.3125H19.875C18.0489 3.3125 16.5625 4.80054 16.5625 6.625V9.9375H13.25ZM46.375 39.75H31.4688V43.0625H21.5312V39.75H6.625C5.45724 39.75 4.35407 39.5106 3.3125 39.1386V46.375C3.3125 50.0337 6.27884 53 9.9375 53H43.0625C46.7212 53 49.6875 50.0337 49.6875 46.375V39.1386C48.6459 39.5107 47.5428 39.75 46.375 39.75ZM46.375 13.25H6.625C2.96634 13.25 0 16.2163 0 19.875V29.8125C0 33.4712 2.96634 36.4375 6.625 36.4375H21.5312V33.125H31.4688V36.4375H46.375C50.0337 36.4375 53 33.4712 53 29.8125V19.875C53 16.2163 50.0337 13.25 46.375 13.25Z" fill="#FEC34F"/>
</svg>
