<svg width="65" height="40" viewBox="0 0 65 40" fill="none" xmlns="http://www.w3.org/2000/svg">
<path d="M62.3449 0.035089L47.43 2.84018C45.6512 3.18227 44.967 5.37161 46.2669 6.60311L49.9614 10.2976L35.457 24.8704L24.9208 14.3342C23.6209 13.0343 21.5 13.0343 20.2001 14.3342L0.97494 33.4909C-0.32498 34.7909 -0.32498 36.9118 0.97494 38.2117C1.59069 38.8275 2.48011 39.1695 3.30111 39.1695C4.12212 39.1695 5.01154 38.8275 5.62729 38.2117L22.4578 21.3812L33.1309 31.9174C34.4308 33.2173 36.5517 33.2173 37.8516 31.9174L54.6822 15.0868L58.3767 18.7813C59.6766 20.0812 61.866 19.3971 62.1396 17.6182L64.9447 2.70335C65.2868 1.12976 63.9185 -0.238579 62.3449 0.035089Z" fill="#506EF5"/>
</svg>
