<svg width="47" height="47" viewBox="0 0 47 47" fill="none" xmlns="http://www.w3.org/2000/svg">
<path d="M44.7411 6.64002C43.5105 6.64002 42.5129 7.63806 42.5129 8.86918V39.8267C42.5129 41.2669 41.3326 42.5249 40.3557 42.5249H7.76947C6.53882 42.5249 5.5403 43.5359 5.5403 44.7665C5.5403 45.9972 6.53882 47.001 7.76947 47.001H42.0112C44.6404 47.001 47 44.6385 47 42.006V8.86918C46.9995 7.63854 45.9722 6.64002 44.7411 6.64002ZM38.0555 37.0124V2.17977C38.0555 1.05463 37.1735 0 36.0475 0H30.1897V12.7745L25.1707 8.26297L20.1311 12.7745V0H2.19895C1.07286 0 0.321809 1.05463 0 2.17449V37.0124C0 38.1385 1.07334 39.1783 2.19943 39.1783H36.0479C37.1735 39.1783 38.0555 38.1385 38.0555 37.0124Z" fill="#80D0A8"/>
</svg>
