<svg width="77" height="77" viewBox="0 0 77 77" fill="none" xmlns="http://www.w3.org/2000/svg">
<rect x="1.30921" y="1.30921" width="74.1447" height="74.1447" rx="17.2697" stroke="#B7BAD1" stroke-width="1.38158" stroke-dasharray="4.61 4.61"/>
<rect x="5.16406" y="4.76367" width="65.983" height="65.983" rx="13.8158" fill="#11142D"/>
<path d="M51.0977 33.6234H50.3478C49.778 32.1237 48.7881 30.804 47.4384 29.6942C47.7983 29.0943 48.2483 28.4344 48.7282 27.8645C49.1181 27.4146 48.8181 26.6948 48.2183 26.6348C46.6286 26.5148 44.9489 26.9947 43.5692 27.5346C41.9795 26.9647 40.2698 26.6348 38.4102 26.6348C34.241 26.6348 30.5517 28.2545 28.2721 30.714L26.5325 29.6342C25.7526 29.1543 24.7328 29.3942 24.2529 30.1741C23.773 30.9539 24.013 31.9737 24.7928 32.4537L26.5025 33.5034C26.1426 34.4033 25.9626 35.3631 25.9626 36.3829C25.9626 38.8724 27.1624 41.122 29.112 42.8316L30.6717 48.4405C30.7917 48.8605 31.1816 49.1604 31.6315 49.1604H35.3208C35.9806 49.1604 36.4606 48.5305 36.2806 47.9006L35.7107 45.861C36.5805 46.011 37.4804 46.101 38.4102 46.101C39.31 46.101 40.2098 46.011 41.0797 45.861L41.7995 48.4105C41.9195 48.8305 42.3094 49.1304 42.7593 49.1304H46.4486C47.1085 49.1304 47.5884 48.5005 47.4084 47.8706L46.2986 43.8814C48.1883 42.6817 49.628 41.032 50.3478 39.1723H51.1277C51.8775 39.1723 52.5074 38.5425 52.5074 37.7926V34.9432C52.4774 34.2533 51.8476 33.6234 51.0977 33.6234ZM39.8799 31.0739C39.1 30.924 38.2902 30.894 37.4804 30.9539C36.2206 31.0739 35.0208 31.4039 34.001 31.9737C33.8811 32.0337 33.7311 32.0637 33.6111 32.0637C33.3112 32.0637 33.0412 31.9138 32.8912 31.6438C32.6813 31.2539 32.8013 30.744 33.2212 30.504C34.4509 29.8142 35.8907 29.3942 37.3604 29.2743C38.3202 29.1843 39.28 29.2443 40.1798 29.3942C40.6297 29.4842 40.9297 29.9042 40.8397 30.3541C40.7797 30.864 40.3298 31.1639 39.8799 31.0739ZM45.8187 34.4333C45.1289 34.4333 44.559 33.8634 44.559 33.1735C44.559 32.4836 45.1289 31.9138 45.8187 31.9138C46.5086 31.9138 47.0785 32.4836 47.0785 33.1735C47.0785 33.8634 46.5086 34.4333 45.8187 34.4333Z" fill="white"/>
</svg>
