<svg width="77" height="77" viewBox="0 0 77 77" fill="none" xmlns="http://www.w3.org/2000/svg">
<rect x="5.16602" y="4.7627" width="66.4032" height="66.4032" rx="13.8158" fill="#11142D"/>
<path d="M50.8929 43.3199L47.0034 41.8682L39.553 44.6347C39.1422 44.7716 38.6765 44.8812 38.2383 44.8812C37.7726 44.8812 37.3344 44.799 36.9235 44.6347L29.4731 41.8682L25.5836 43.3199C25.118 43.4842 25.118 44.1416 25.5836 44.3334L37.6083 48.7707C38.0191 48.9077 38.4574 48.9077 38.8683 48.7707L50.8929 44.3334C51.3586 44.1416 51.3586 43.4842 50.8929 43.3199Z" fill="white"/>
<path d="M50.8929 37.3209L47.0034 35.8691L39.553 38.6082C39.1422 38.7726 38.6765 38.8548 38.2383 38.8548C37.7726 38.8548 37.3344 38.7726 36.9235 38.6082L29.4731 35.8691L25.5836 37.3209C25.118 37.4852 25.118 38.1426 25.5836 38.3343L37.6083 42.7443C38.0191 42.9086 38.4574 42.9086 38.8683 42.7443L50.8929 38.3069C51.3586 38.1426 51.3586 37.4852 50.8929 37.3209Z" fill="white"/>
<path d="M25.5836 32.3084L37.6083 36.7458C38.0191 36.8827 38.4574 36.8827 38.8683 36.7458L50.8929 32.3084C51.3586 32.1441 51.3586 31.4593 50.8929 31.295L38.8683 26.8576C38.4574 26.7206 38.0191 26.7206 37.6083 26.8576L25.5836 31.295C25.118 31.4593 25.118 32.1441 25.5836 32.3084Z" fill="white"/>
<rect x="1.30921" y="1.30921" width="74.1447" height="74.1447" rx="17.2697" stroke="#B7BAD1" stroke-width="1.38158" stroke-dasharray="4.61 4.61"/>
</svg>
