<svg width="77" height="77" viewBox="0 0 77 77" fill="none" xmlns="http://www.w3.org/2000/svg">
<rect x="5.16602" y="4.7627" width="66.4032" height="66.4032" rx="13.8158" fill="#11142D"/>
<rect x="1.30921" y="1.30921" width="74.1447" height="74.1447" rx="17.2697" stroke="#B7BAD1" stroke-width="1.38158" stroke-dasharray="4.61 4.61"/>
<path d="M51.2444 41.9854H47.076V38.7916C47.076 38.1659 46.6298 37.6566 46.0838 37.6566H38.5026V34.5019H42.6722C43.6326 34.5019 44.4152 33.7199 44.4152 32.7593V27.416C44.4152 26.4536 43.6332 25.6719 42.6722 25.6719H33.1706C32.2094 25.6719 31.4277 26.4536 31.4277 27.416V32.759C31.4277 33.7196 32.2094 34.5016 33.1706 34.5016H37.3402V37.6563H29.8261C29.2422 37.6563 28.768 38.1671 28.768 38.7913V41.9848H24.5984C23.6372 41.9848 22.8555 42.7668 22.8555 43.729V49.0725C22.8555 50.0329 23.6369 50.8146 24.5984 50.8146H34.0994C35.0601 50.8146 35.843 50.0329 35.843 49.0725V43.7296C35.843 42.7671 35.0607 41.9854 34.0994 41.9854H29.8303L29.8261 38.8192H45.913V41.9854H41.7434C40.7819 41.9854 40.0005 42.7671 40.0005 43.7296V49.0728C40.0005 50.0332 40.7819 50.8152 41.7434 50.8152H51.2444C52.2048 50.8152 52.988 50.0332 52.988 49.0728V43.7296C52.988 42.7671 52.206 41.9854 51.2444 41.9854Z" fill="white"/>
</svg>
