<svg width="77" height="77" viewBox="0 0 77 77" fill="none" xmlns="http://www.w3.org/2000/svg">
<rect x="6.08789" y="5.16699" width="65.9995" height="65.9995" rx="13.8158" fill="#11142D"/>
<path d="M27.1712 45.8613C27.4998 45.8613 27.7687 45.5924 27.7687 45.2638V30.9227C27.7687 30.5941 27.4998 30.3252 27.1712 30.3252H24.1835C23.8548 30.3252 23.5859 30.5941 23.5859 30.9227V45.2638C23.5859 45.5924 23.8548 45.8613 24.1835 45.8613H27.1712Z" fill="white"/>
<path d="M53.4641 35.512C53.0937 35.3148 52.6634 35.3268 52.3049 35.5538L47.5724 38.8702C46.8792 39.3602 46.2398 39.9219 45.6722 40.5553C45.5587 40.6867 45.4272 40.8122 45.2838 40.9198C44.5607 41.4815 43.6345 41.6787 42.7442 41.4576L36.9839 40.0832C36.5955 39.9936 36.3684 39.5992 36.4581 39.2168C36.5537 38.8284 36.9481 38.5953 37.3305 38.6909L43.0968 40.0653C43.5509 40.1788 44.0289 40.0832 44.4054 39.7844C44.7759 39.4976 44.991 39.0554 44.991 38.5834C44.991 37.9559 44.6683 37.4301 44.1484 37.1732L36.942 33.57C35.0538 32.6259 32.9445 32.1299 30.8411 32.1299H28.9648V43.6087H32.2035C33.6496 43.6087 35.0777 43.9433 36.3684 44.5947L38.0475 45.4372C40.8918 46.8653 44.2978 46.4411 46.7119 44.3736L53.6673 37.4122C53.9183 37.1971 54.0617 36.8863 54.0617 36.5517C54.0617 36.0857 53.8406 35.7151 53.4641 35.512Z" fill="white"/>
<rect x="1.30921" y="1.30921" width="74.1447" height="74.1447" rx="17.2697" stroke="#B7BAD1" stroke-width="1.38158" stroke-dasharray="4.61 4.61"/>
</svg>
