<svg width="77" height="77" viewBox="0 0 77 77" fill="none" xmlns="http://www.w3.org/2000/svg">
<rect x="1.30921" y="1.30921" width="74.1447" height="74.1447" rx="17.2697" stroke="#B7BAD1" stroke-width="1.38158" stroke-dasharray="4.61 4.61"/>
<rect x="5.16602" y="5.16699" width="65.9995" height="65.9995" rx="13.8158" fill="#11142D"/>
<path d="M44.6222 34.9143C44.6222 30.5175 40.0165 27 34.3336 27C28.6507 27 24.0011 30.5394 24.0011 34.9143C24.0256 36.6151 24.6979 38.2426 25.8807 39.465C25.4263 40.4447 24.83 41.3522 24.111 42.1581C24.057 42.214 24.0207 42.2846 24.0066 42.3611C23.9925 42.4376 24.0012 42.5165 24.0317 42.588C24.0622 42.6595 24.1131 42.7205 24.178 42.7633C24.2429 42.8061 24.319 42.8288 24.3968 42.8286C25.9476 42.8188 27.4669 42.3896 28.7936 41.5865C30.5079 42.4113 32.3872 42.836 34.2896 42.8286C40.0165 42.8286 44.6222 39.2891 44.6222 34.9143Z" fill="white"/>
<path d="M50.6551 45.7742C51.8489 44.5642 52.5367 42.9448 52.5787 41.2455C52.5787 37.9479 49.9296 35.101 46.1813 33.9248C46.2259 34.2527 46.2479 34.5832 46.2473 34.9141C46.2473 40.1573 40.9161 44.4112 34.3758 44.4112C33.8468 44.4067 33.3184 44.3737 32.793 44.3123C34.3538 47.1592 38.0142 49.1598 42.2791 49.1598C44.1821 49.1726 46.0626 48.7477 47.7751 47.9177C49.1019 48.7208 50.6212 49.15 52.172 49.1598C52.2492 49.1581 52.3242 49.1344 52.3885 49.0916C52.4527 49.0488 52.5034 48.9886 52.5347 48.918C52.5652 48.8468 52.5742 48.7683 52.5605 48.6921C52.5468 48.6159 52.5111 48.5454 52.4578 48.4893C51.7253 47.6789 51.1177 46.7638 50.6551 45.7742Z" fill="white"/>
</svg>
