<svg width="77" height="77" viewBox="0 0 77 77" fill="none" xmlns="http://www.w3.org/2000/svg">
<rect x="6.08594" y="5.16699" width="65.9995" height="65.9995" rx="13.8158" fill="#11142D"/>
<rect x="1.30921" y="1.30921" width="74.1447" height="74.1447" rx="17.2697" stroke="#B7BAD1" stroke-width="1.38158" stroke-dasharray="4.61 4.61"/>
<path d="M22.2617 29.6318V34.6017C23.0077 34.6015 23.7463 34.7483 24.4355 35.0336C25.1247 35.319 25.7509 35.7374 26.2784 36.2648C26.8059 36.7923 27.2242 37.4185 27.5096 38.1077C27.795 38.7969 27.9417 39.5356 27.9415 40.2815V46.6713H33.6214V40.2815C33.6214 38.7751 34.2198 37.3304 35.285 36.2653C36.3501 35.2001 37.7948 34.6017 39.3012 34.6017C40.8076 34.6017 42.2523 35.2001 43.3174 36.2653C44.3826 37.3304 44.981 38.7751 44.981 40.2815V46.6713H50.6608V40.2815C50.6606 39.5356 50.8074 38.7969 51.0928 38.1077C51.3782 37.4185 51.7965 36.7923 52.324 36.2648C52.8514 35.7374 53.4777 35.319 54.1669 35.0336C54.8561 34.7483 55.5947 34.6015 56.3407 34.6017V29.6318H22.2617Z" fill="white"/>
</svg>
