<svg width="77" height="77" viewBox="0 0 77 77" fill="none" xmlns="http://www.w3.org/2000/svg">
<rect x="6.08789" y="5.16699" width="65.9995" height="65.9995" rx="13.8158" fill="#11142D"/>
<rect x="1.30921" y="1.30921" width="74.1447" height="74.1447" rx="17.2697" stroke="#B7BAD1" stroke-width="1.38158" stroke-dasharray="4.61 4.61"/>
<path d="M54.2999 37.9819C54.2999 41.1018 51.7622 43.6395 48.6374 43.6395H47.0451V41.8681C47.0451 41.3157 46.647 40.853 46.1096 40.7634L44.995 40.5793L45.6568 39.6588C45.9703 39.2109 45.9155 38.6039 45.5324 38.2207L43.547 36.2404C43.338 36.0264 43.0544 35.9119 42.7559 35.9119C42.522 35.9119 42.2981 35.9816 42.104 36.1209L41.1934 36.7728L41.0093 35.6681C40.9198 35.1208 40.457 34.7277 39.9047 34.7277H37.0983C36.5509 34.7277 36.0832 35.1208 35.9936 35.6631L35.8095 36.7728L34.894 36.1159C34.7049 35.9816 34.481 35.9119 34.2471 35.9119C33.9486 35.9119 33.665 36.0264 33.456 36.2403L31.4706 38.2207C31.0875 38.6039 31.0327 39.2109 31.3512 39.6637L32.008 40.5793L30.9033 40.7634C30.361 40.853 29.9629 41.3157 29.9629 41.8681V43.6395H28.3607C25.2408 43.6395 22.7031 41.1018 22.7031 37.9819C22.7031 35.6582 24.1262 33.5783 26.2708 32.7324C26.8878 28.881 30.2515 26 34.1825 26C37.6556 26 40.7257 28.2391 41.8005 31.5033C42.2881 31.3142 42.8156 31.2147 43.353 31.2147C44.6268 31.2147 45.8061 31.7521 46.637 32.6925C47.264 32.4537 47.9357 32.3293 48.6374 32.3293C51.7622 32.3293 54.2999 34.867 54.2999 37.9819Z" fill="white"/>
<path d="M45.2971 41.6617L43.8062 41.4132C43.7339 41.2099 43.6525 41.0157 43.5622 40.8304L44.4432 39.6015C44.5381 39.466 44.5245 39.2807 44.4071 39.1633L42.6043 37.3651C42.4869 37.2476 42.3016 37.2341 42.1661 37.3289L40.9417 38.2054C40.752 38.1151 40.5577 38.0338 40.3589 37.966L40.1104 36.475C40.0833 36.3079 39.9432 36.1904 39.7761 36.1904H37.2279C37.0607 36.1904 36.9207 36.3124 36.8936 36.475L36.6451 37.966C36.4463 38.0338 36.252 38.1151 36.0623 38.2055L34.8379 37.329C34.7023 37.2341 34.5171 37.2476 34.3996 37.3651L32.5969 39.1633C32.4795 39.2807 32.4659 39.466 32.5608 39.6015L33.4418 40.8304C33.3514 41.0157 33.2701 41.2099 33.1978 41.4132L31.7114 41.6617C31.5442 41.6889 31.4268 41.8289 31.4268 41.9961V44.5397C31.4268 44.7069 31.5442 44.8469 31.7114 44.8741L33.1978 45.1225C33.2701 45.3259 33.3514 45.5201 33.4373 45.7054L32.5608 46.9343C32.4659 47.0698 32.4795 47.255 32.5969 47.3725L34.3996 49.1707C34.5171 49.2881 34.7023 49.3017 34.8379 49.2068L36.0668 48.3258C36.252 48.4162 36.4463 48.4975 36.6451 48.5698L36.8936 50.0562C36.9207 50.2189 37.0607 50.3409 37.2279 50.3409H39.7761C39.9432 50.3409 40.0833 50.2234 40.1104 50.0562L40.3589 48.5698C40.5577 48.4975 40.752 48.4162 40.9372 48.3258L42.1661 49.2068C42.3016 49.3017 42.4869 49.2881 42.6043 49.1707L44.4071 47.3725C44.5245 47.255 44.5381 47.0698 44.4432 46.9343L43.5667 45.7054C43.6525 45.5201 43.7339 45.3259 43.8062 45.1271L45.2971 44.8741C45.4643 44.8469 45.5817 44.7069 45.5817 44.5397V41.9961C45.5817 41.8289 45.4643 41.6889 45.2971 41.6617ZM38.502 46.4508C36.749 46.4508 35.3213 45.0232 35.3213 43.2656C35.3213 41.5126 36.749 40.085 38.502 40.085C40.2595 40.085 41.6872 41.5126 41.6872 43.2656C41.6872 45.0232 40.2595 46.4508 38.502 46.4508Z" fill="white"/>
</svg>
