<svg width="15" height="18" viewBox="0 0 15 18" fill="none" xmlns="http://www.w3.org/2000/svg">
<path d="M7.40802 0C11.4995 0 14.816 3.31651 14.816 7.40802C14.816 10.5384 12.6164 13.9499 8.27419 17.6789C8.03274 17.8864 7.7249 18.0003 7.4066 18C7.08829 17.9997 6.78065 17.8853 6.53957 17.6774L6.25237 17.4282C2.10236 13.7964 0 10.4685 0 7.40802C0 3.31651 3.31651 0 7.40802 0ZM7.40802 4.55878C6.65235 4.55878 5.92764 4.85897 5.3933 5.3933C4.85897 5.92764 4.55878 6.65235 4.55878 7.40802C4.55878 8.16368 4.85897 8.8884 5.3933 9.42273C5.92764 9.95707 6.65235 10.2573 7.40802 10.2573C8.16368 10.2573 8.8884 9.95707 9.42273 9.42273C9.95707 8.8884 10.2573 8.16368 10.2573 7.40802C10.2573 6.65235 9.95707 5.92764 9.42273 5.3933C8.8884 4.85897 8.16368 4.55878 7.40802 4.55878Z" fill="white"/>
</svg>
