<svg width="17" height="13" viewBox="0 0 17 13" fill="none" xmlns="http://www.w3.org/2000/svg">
<path d="M8.5 6.375L0 2.0752V1.0625C0 0.763672 0.105143 0.511882 0.31543 0.307129C0.525716 0.102376 0.77474 0 1.0625 0H15.9375C16.2253 0 16.4743 0.102376 16.6846 0.307129C16.8949 0.511882 17 0.763672 17 1.0625V2.0752L8.5 6.375ZM7.96875 7.4375H9.03125L17 3.30371V11.6875C17 11.9753 16.8949 12.2243 16.6846 12.4346C16.4743 12.6449 16.2253 12.75 15.9375 12.75H1.0625C0.77474 12.75 0.525716 12.6449 0.31543 12.4346C0.105143 12.2243 0 11.9753 0 11.6875V3.30371L7.96875 7.4375Z" fill="white"/>
</svg>
