<svg width="35" height="35" viewBox="0 0 35 35" fill="none" xmlns="http://www.w3.org/2000/svg">
<rect width="35" height="35" rx="5" fill="#232642"/>
<path opacity="0.794434" fill-rule="evenodd" clip-rule="evenodd" d="M10 24.9684H13.757V13.6973H10V24.9684Z" fill="white"/>
<path opacity="0.794434" fill-rule="evenodd" clip-rule="evenodd" d="M23.276 13.6973C21.2129 13.6973 19.9202 14.7907 19.6815 15.5559V13.8047H15.6357C15.6881 14.734 15.6357 24.9684 15.6357 24.9684H19.6815V18.927C19.6815 18.5913 19.6649 18.2555 19.7692 18.0151C20.0474 17.3431 20.6451 16.6461 21.7191 16.6461C23.1239 16.6461 23.7626 17.6793 23.7626 19.1915V24.9684H27.8461V18.7607C27.8461 15.303 25.8353 13.6973 23.276 13.6973Z" fill="white"/>
<path opacity="0.794434" fill-rule="evenodd" clip-rule="evenodd" d="M11.8907 9C10.7478 9 10 9.81083 10 10.8802C10 11.9289 10.7264 12.757 11.8465 12.757H11.8693C13.0328 12.757 13.757 11.9263 13.757 10.8772C13.7348 9.80866 13.0328 9 11.8907 9Z" fill="white"/>
</svg>
