<svg width="178" height="182" viewBox="0 0 178 182" fill="none" xmlns="http://www.w3.org/2000/svg">
<path d="M159 90C159 130.317 126.317 163 86 163C45.6832 163 13 130.317 13 90C13 49.6832 45.6832 17 86 17C126.317 17 159 49.6832 159 90ZM24.827 90C24.827 123.785 52.2151 151.173 86 151.173C119.785 151.173 147.173 123.785 147.173 90C147.173 56.2151 119.785 28.827 86 28.827C52.2151 28.827 24.827 56.2151 24.827 90Z" fill="#E2E6F4"/>
<g filter="url(#filter0_d)">
<path d="M86 22.9135C86 19.6476 88.652 16.9751 91.9072 17.2394C103.411 18.1733 114.559 21.8248 124.421 27.9288C135.963 35.0729 145.284 45.2936 151.338 57.4427C157.392 69.5919 159.938 83.1884 158.691 96.705C157.445 110.222 152.454 123.123 144.28 133.96C136.106 144.796 125.072 153.14 112.418 158.052C99.7646 162.964 85.9917 164.251 72.6468 161.768C59.3019 159.285 46.9135 153.131 36.8733 143.996C28.2949 136.191 21.7209 126.475 17.6624 115.67C16.5139 112.613 18.3549 109.329 21.4951 108.432C24.6354 107.534 27.8817 109.367 29.0779 112.406C32.5007 121.102 37.8813 128.924 44.8325 135.248C53.2461 142.903 63.6273 148.06 74.8102 150.141C85.993 152.222 97.5345 151.143 108.138 147.027C118.742 142.91 127.988 135.919 134.838 126.838C141.688 117.756 145.87 106.945 146.914 95.6187C147.959 84.292 145.825 72.8983 140.752 62.7174C135.679 52.5366 127.868 43.9718 118.196 37.9851C110.205 33.039 101.206 30.0145 91.9044 29.1126C88.6538 28.7973 86 26.1794 86 22.9135Z" fill="#506EF5"/>
</g>
<defs>
<filter id="filter0_d" x="0.318359" y="0.22168" width="177.682" height="181.779" filterUnits="userSpaceOnUse" color-interpolation-filters="sRGB">
<feFlood flood-opacity="0" result="BackgroundImageFix"/>
<feColorMatrix in="SourceAlpha" type="matrix" values="0 0 0 0 0 0 0 0 0 0 0 0 0 0 0 0 0 0 127 0"/>
<feOffset dx="1" dy="1"/>
<feGaussianBlur stdDeviation="9"/>
<feColorMatrix type="matrix" values="0 0 0 0 0.266667 0 0 0 0 0.4 0 0 0 0 1 0 0 0 0.57 0"/>
<feBlend mode="normal" in2="BackgroundImageFix" result="effect1_dropShadow"/>
<feBlend mode="normal" in="SourceGraphic" in2="effect1_dropShadow" result="shape"/>
</filter>
</defs>
</svg>
