<svg width="144" height="32" viewBox="0 0 144 32" fill="none" xmlns="http://www.w3.org/2000/svg">
<path d="M8.19597 17.1642H5.74339V25.8346H1.41256V17.1642H0V13.6307H1.41256V9.95703H5.74339V13.6307H8.19597V17.1642Z" fill="white"/>
<path d="M23.5011 25.8353H19.1858V24.481C18.7822 24.9947 18.3631 25.3839 17.944 25.6174C17.2144 26.0221 16.3762 26.24 15.4448 26.24C13.9391 26.24 12.5887 25.7108 11.4089 24.6678C9.99637 23.4225 9.29785 21.7725 9.29785 19.7178C9.29785 17.6319 10.0119 15.9663 11.4555 14.721C12.6042 13.7247 13.9081 13.2422 15.3983 13.2422C16.2675 13.2422 17.0747 13.429 17.8353 13.787C18.27 14.0049 18.7201 14.3474 19.1858 14.8299V13.6313H23.5011V25.8353ZM19.3255 19.7333C19.3255 18.9706 19.0616 18.3168 18.5183 17.772C17.975 17.2272 17.3231 16.9625 16.5625 16.9625C15.7087 16.9625 15.0102 17.2894 14.4669 17.9276C14.0167 18.4569 13.7994 19.0484 13.7994 19.7178C13.7994 20.3871 14.0167 20.9942 14.4669 21.5079C15.0102 22.1617 15.7087 22.473 16.5625 22.473C17.3386 22.473 17.9906 22.2084 18.5338 21.6791C19.0461 21.1654 19.3255 20.5116 19.3255 19.7333Z" fill="white"/>
<path d="M40.6691 19.7489C40.6691 21.8348 39.955 23.5004 38.5114 24.7457C37.3627 25.7419 36.0588 26.2245 34.5687 26.2245C33.6994 26.2245 32.8922 26.0377 32.1316 25.6641C31.697 25.4461 31.2468 25.1037 30.7811 24.6211V31.9529H26.4658V13.6313H30.7811V15.0012C31.1692 14.4875 31.5728 14.1139 32.0229 13.8648C32.7525 13.4601 33.5907 13.2422 34.5221 13.2422C36.0278 13.2422 37.3783 13.7714 38.558 14.8144C39.955 16.0597 40.6691 17.7097 40.6691 19.7489ZM36.1675 19.7333C36.1675 19.0328 35.9502 18.4413 35.5155 17.9276C34.9722 17.2739 34.2582 16.947 33.4045 16.947C32.6283 16.947 31.9764 17.2116 31.4331 17.7564C30.8898 18.2857 30.6259 18.955 30.6259 19.7333C30.6259 20.5116 30.8898 21.1654 31.4331 21.7102C31.9764 22.2551 32.6283 22.5197 33.3889 22.5197C34.2582 22.5197 34.9567 22.1928 35.4845 21.539C35.9502 21.0253 36.1675 20.4182 36.1675 19.7333Z" fill="white"/>
<path d="M57.3253 19.7489C57.3253 21.8348 56.6113 23.5004 55.1677 24.7457C54.019 25.7419 52.7151 26.2245 51.2249 26.2245C50.3556 26.2245 49.5485 26.0377 48.7878 25.6641C48.3532 25.4461 47.9031 25.1037 47.4374 24.6211V31.9529H43.1221V13.6313H47.4374V15.0012C47.8254 14.4875 48.229 14.1139 48.6792 13.8648C49.4088 13.4601 50.247 13.2422 51.1783 13.2422C52.684 13.2422 54.0345 13.7714 55.2142 14.8144C56.6268 16.0597 57.3253 17.7097 57.3253 19.7489ZM52.8393 19.7333C52.8393 19.0328 52.622 18.4413 52.1873 17.9276C51.644 17.2739 50.93 16.947 50.0762 16.947C49.3001 16.947 48.6481 17.2116 48.1049 17.7564C47.5616 18.2857 47.2977 18.955 47.2977 19.7333C47.2977 20.5116 47.5616 21.1654 48.1049 21.7102C48.6481 22.2551 49.3001 22.5197 50.0607 22.5197C50.93 22.5197 51.6285 22.1928 52.1563 21.539C52.622 21.0253 52.8393 20.4182 52.8393 19.7333Z" fill="white"/>
<path d="M72.7084 20.542H63.6586C63.6586 22.3788 64.5434 23.2972 66.2975 23.2972C67.1978 23.2972 67.8808 22.908 68.362 22.1453H72.5376C72.2116 23.2505 71.7149 24.1067 71.063 24.6982C69.8832 25.7878 68.3154 26.3326 66.3441 26.3326C63.8449 26.3326 61.9667 25.5699 60.6938 24.0444C59.7469 22.908 59.2812 21.5071 59.2812 19.8726C59.2812 17.9268 59.8711 16.3391 61.0508 15.1249C62.2306 13.9107 63.8915 13.2881 66.0491 13.2881C68.7035 13.2881 70.5973 14.2532 71.7304 16.1834C72.3669 17.2731 72.6928 18.5339 72.6928 19.9816V20.542H72.7084ZM68.688 18.0669C68.3775 16.6971 67.5704 15.9966 66.2509 15.9966C65.5214 15.9966 64.9315 16.2145 64.4813 16.6504C64.1243 16.9929 63.8915 17.4754 63.7983 18.0669H68.688Z" fill="white"/>
<path d="M88.0139 25.8348H83.6986V19.655C83.6986 18.5809 83.5744 17.8649 83.3261 17.5068C82.969 16.9932 82.4413 16.7285 81.7272 16.7285C81.0753 16.7285 80.532 16.9465 80.0818 17.3979C79.6782 17.8026 79.4764 18.4252 79.4764 19.2814V25.8192H75.1611V13.6308H79.4764V15.1719C79.9732 14.5959 80.4388 14.1912 80.858 13.9422C81.541 13.553 82.3947 13.3662 83.4192 13.3662C84.7231 13.3662 85.7942 13.7242 86.6169 14.4247C87.5482 15.2342 88.0139 16.4483 88.0139 18.0517V25.8348Z" fill="white"/>
<path d="M104.591 24.9939C104.591 26.0679 104.514 26.9241 104.374 27.5934C104.141 28.6519 103.52 29.5859 102.542 30.4265C101.285 31.485 99.6242 31.9987 97.5597 31.9987C95.3865 31.9987 93.6635 31.4227 92.3751 30.2708C91.5214 29.5081 90.9781 28.7142 90.7297 27.8736C90.6987 27.7802 90.6676 27.609 90.621 27.3132H95.4486C95.5883 27.718 95.7746 27.9982 96.0074 28.1694C96.3955 28.4496 96.8767 28.6052 97.4821 28.6052C98.4755 28.6052 99.2517 28.2472 99.7794 27.5467C100.105 27.0953 100.276 26.4571 100.276 25.6321V24.4802C99.7639 24.9472 99.3293 25.2896 98.9723 25.4764C98.2427 25.8811 97.3889 26.0835 96.3955 26.0835C95.1537 26.0835 94.0516 25.7566 93.0736 25.1184C92.0647 24.4646 91.3506 23.5618 90.916 22.4254C90.6211 21.6471 90.4658 20.8221 90.4658 19.9037C90.4658 17.8956 91.1023 16.2768 92.3596 15.0159C93.5393 13.8484 94.9519 13.2725 96.6128 13.2725C97.4976 13.2725 98.2893 13.4593 98.9723 13.8173C99.3758 14.0352 99.8105 14.3932 100.261 14.8914V13.6149H104.576V24.9939H104.591ZM100.493 19.6858C100.493 18.9075 100.23 18.2381 99.7018 17.6777C99.174 17.1173 98.5221 16.8371 97.746 16.8371C96.8767 16.8371 96.1782 17.164 95.6349 17.8334C95.2002 18.3626 94.9829 18.9853 94.9829 19.6858C94.9829 20.4641 95.2468 21.1334 95.7901 21.6938C96.3334 22.2542 96.9854 22.5344 97.7615 22.5344C98.5221 22.5344 99.1741 22.2542 99.7173 21.6938C100.214 21.149 100.493 20.4796 100.493 19.6858Z" fill="white"/>
<path d="M111.841 25.8348H107.525V13.6309H111.841V25.8348Z" fill="white"/>
<path d="M127.627 25.8348H123.312V19.655C123.312 18.5809 123.188 17.8649 122.939 17.5068C122.582 16.9932 122.055 16.7285 121.341 16.7285C120.689 16.7285 120.145 16.9465 119.695 17.3979C119.292 17.8026 119.09 18.4252 119.09 19.2814V25.8192H114.774V13.6308H119.09V15.1719C119.586 14.5959 120.052 14.1912 120.471 13.9422C121.154 13.553 122.008 13.3662 123.032 13.3662C124.336 13.3662 125.407 13.7242 126.23 14.4247C127.162 15.2342 127.627 16.4483 127.627 18.0517V25.8348Z" fill="white"/>
<path d="M143.507 20.542H134.457C134.457 22.3788 135.342 23.2972 137.096 23.2972C137.997 23.2972 138.68 22.908 139.161 22.1453H143.336C143.01 23.2505 142.514 24.1067 141.862 24.6982C140.682 25.7878 139.114 26.3326 137.143 26.3326C134.644 26.3326 132.765 25.5699 131.493 24.0444C130.546 22.908 130.08 21.5071 130.08 19.8726C130.08 17.9268 130.67 16.3391 131.85 15.1249C133.029 13.9107 134.69 13.2881 136.848 13.2881C139.502 13.2881 141.396 14.2532 142.529 16.1834C143.166 17.2731 143.492 18.5339 143.492 19.9816V20.542H143.507ZM139.471 18.0669C139.161 16.6971 138.354 15.9966 137.034 15.9966C136.305 15.9966 135.715 16.2145 135.265 16.6504C134.908 16.9929 134.675 17.4754 134.582 18.0669H139.471Z" fill="white"/>
<path d="M111.487 3.69802V6.48605H108.707V3.69802H111.487ZM115.175 0H107.703C106.216 0 105 1.21976 105 2.71059V7.49284C105 8.98366 106.216 10.2034 107.703 10.2034H112.472C113.959 10.2034 115.175 8.98366 115.175 7.49284V0Z" fill="white"/>
</svg>
