<svg width="144" height="37" viewBox="0 0 144 37" fill="none" xmlns="http://www.w3.org/2000/svg">
<path d="M8.19597 22.1642H5.74339V30.8346H1.41256V22.1642H0V18.6307H1.41256V14.957H5.74339V18.6307H8.19597V22.1642Z" fill="black"/>
<path d="M23.5021 30.8353H19.1868V29.481C18.7832 29.9947 18.3641 30.3839 17.945 30.6174C17.2154 31.0221 16.3772 31.24 15.4458 31.24C13.9401 31.24 12.5896 30.7108 11.4099 29.6678C9.99735 28.4225 9.29883 26.7725 9.29883 24.7178C9.29883 22.6319 10.0129 20.9663 11.4565 19.721C12.6052 18.7247 13.9091 18.2422 15.3992 18.2422C16.2685 18.2422 17.0757 18.429 17.8363 18.787C18.2709 19.0049 18.7211 19.3474 19.1868 19.8299V18.6313H23.5021V30.8353ZM19.3265 24.7333C19.3265 23.9706 19.0626 23.3168 18.5193 22.772C17.976 22.2272 17.3241 21.9625 16.5634 21.9625C15.7097 21.9625 15.0112 22.2894 14.4679 22.9276C14.0177 23.4569 13.8004 24.0484 13.8004 24.7178C13.8004 25.3871 14.0177 25.9942 14.4679 26.5079C15.0112 27.1617 15.7097 27.473 16.5634 27.473C17.3396 27.473 17.9915 27.2084 18.5348 26.6791C19.0471 26.1654 19.3265 25.5116 19.3265 24.7333Z" fill="black"/>
<path d="M40.67 24.7489C40.67 26.8348 39.956 28.5004 38.5124 29.7457C37.3637 30.7419 36.0598 31.2245 34.5696 31.2245C33.7004 31.2245 32.8932 31.0377 32.1326 30.6641C31.6979 30.4461 31.2478 30.1037 30.7821 29.6211V36.9529H26.4668V18.6313H30.7821V20.0012C31.1702 19.4875 31.5738 19.1139 32.0239 18.8648C32.7535 18.4601 33.5917 18.2422 34.5231 18.2422C36.0288 18.2422 37.3792 18.7714 38.559 19.8144C39.956 21.0597 40.67 22.7097 40.67 24.7489ZM36.1685 24.7333C36.1685 24.0328 35.9512 23.4413 35.5165 22.9276C34.9732 22.2739 34.2592 21.947 33.4054 21.947C32.6293 21.947 31.9773 22.2116 31.4341 22.7564C30.8908 23.2857 30.6269 23.955 30.6269 24.7333C30.6269 25.5116 30.8908 26.1654 31.4341 26.7102C31.9773 27.2551 32.6293 27.5197 33.3899 27.5197C34.2592 27.5197 34.9577 27.1928 35.4855 26.539C35.9512 26.0253 36.1685 25.4182 36.1685 24.7333Z" fill="black"/>
<path d="M57.3243 24.7489C57.3243 26.8348 56.6103 28.5004 55.1667 29.7457C54.018 30.7419 52.7141 31.2245 51.2239 31.2245C50.3547 31.2245 49.5475 31.0377 48.7869 30.6641C48.3522 30.4461 47.9021 30.1037 47.4364 29.6211V36.9529H43.1211V18.6313H47.4364V20.0012C47.8245 19.4875 48.2281 19.1139 48.6782 18.8648C49.4078 18.4601 50.246 18.2422 51.1774 18.2422C52.6831 18.2422 54.0335 18.7714 55.2133 19.8144C56.6258 21.0597 57.3243 22.7097 57.3243 24.7489ZM52.8383 24.7333C52.8383 24.0328 52.621 23.4413 52.1863 22.9276C51.643 22.2739 50.929 21.947 50.0753 21.947C49.2991 21.947 48.6472 22.2116 48.1039 22.7564C47.5606 23.2857 47.2967 23.955 47.2967 24.7333C47.2967 25.5116 47.5606 26.1654 48.1039 26.7102C48.6472 27.2551 49.2991 27.5197 50.0597 27.5197C50.929 27.5197 51.6275 27.1928 52.1553 26.539C52.621 26.0253 52.8383 25.4182 52.8383 24.7333Z" fill="black"/>
<path d="M72.7084 25.542H63.6586C63.6586 27.3788 64.5434 28.2972 66.2975 28.2972C67.1978 28.2972 67.8808 27.908 68.362 27.1453H72.5376C72.2116 28.2505 71.7149 29.1067 71.063 29.6982C69.8832 30.7878 68.3154 31.3326 66.3441 31.3326C63.8449 31.3326 61.9667 30.5699 60.6938 29.0444C59.7469 27.908 59.2812 26.5071 59.2812 24.8726C59.2812 22.9268 59.8711 21.3391 61.0508 20.1249C62.2306 18.9107 63.8915 18.2881 66.0491 18.2881C68.7035 18.2881 70.5973 19.2532 71.7304 21.1834C72.3669 22.2731 72.6928 23.5339 72.6928 24.9816V25.542H72.7084ZM68.688 23.0669C68.3775 21.6971 67.5704 20.9966 66.2509 20.9966C65.5214 20.9966 64.9315 21.2145 64.4813 21.6504C64.1243 21.9929 63.8915 22.4754 63.7983 23.0669H68.688Z" fill="black"/>
<path d="M88.0129 30.8348H83.6976V24.655C83.6976 23.5809 83.5734 22.8649 83.3251 22.5068C82.9681 21.9932 82.4403 21.7285 81.7262 21.7285C81.0743 21.7285 80.531 21.9465 80.0808 22.3979C79.6773 22.8026 79.4755 23.4252 79.4755 24.2814V30.8192H75.1602V18.6308H79.4755V20.1719C79.9722 19.5959 80.4379 19.1912 80.857 18.9422C81.54 18.553 82.3937 18.3662 83.4182 18.3662C84.7221 18.3662 85.7932 18.7242 86.6159 19.4247C87.5472 20.2342 88.0129 21.4483 88.0129 23.0517V30.8348Z" fill="black"/>
<path d="M104.592 29.9939C104.592 31.0679 104.515 31.9241 104.375 32.5934C104.142 33.6519 103.521 34.5859 102.543 35.4265C101.286 36.485 99.6252 36.9987 97.5607 36.9987C95.3875 36.9987 93.6645 36.4227 92.3761 35.2708C91.5223 34.5081 90.979 33.7142 90.7307 32.8736C90.6996 32.7802 90.6686 32.609 90.622 32.3132H95.4496C95.5893 32.718 95.7756 32.9982 96.0084 33.1694C96.3965 33.4496 96.8777 33.6052 97.4831 33.6052C98.4765 33.6052 99.2526 33.2472 99.7804 32.5467C100.106 32.0953 100.277 31.4571 100.277 30.6321V29.4802C99.7649 29.9472 99.3303 30.2896 98.9732 30.4764C98.2437 30.8811 97.3899 31.0835 96.3965 31.0835C95.1547 31.0835 94.0525 30.7566 93.0746 30.1184C92.0656 29.4646 91.3516 28.5618 90.917 27.4254C90.622 26.6471 90.4668 25.8221 90.4668 24.9037C90.4668 22.8956 91.1032 21.2768 92.3606 20.0159C93.5403 18.8484 94.9529 18.2725 96.6138 18.2725C97.4986 18.2725 98.2902 18.4593 98.9732 18.8173C99.3768 19.0352 99.8115 19.3932 100.262 19.8914V18.6149H104.577V29.9939H104.592ZM100.494 24.6858C100.494 23.9075 100.231 23.2381 99.7028 22.6777C99.175 22.1173 98.5231 21.8371 97.7469 21.8371C96.8777 21.8371 96.1791 22.164 95.6359 22.8334C95.2012 23.3626 94.9839 23.9853 94.9839 24.6858C94.9839 25.4641 95.2478 26.1334 95.7911 26.6938C96.3344 27.2542 96.9863 27.5344 97.7625 27.5344C98.5231 27.5344 99.175 27.2542 99.7183 26.6938C100.215 26.149 100.494 25.4796 100.494 24.6858Z" fill="black"/>
<path d="M111.841 30.8348H107.525V18.6309H111.841V30.8348Z" fill="black"/>
<path d="M127.628 30.8348H123.313V24.655C123.313 23.5809 123.189 22.8649 122.94 22.5068C122.583 21.9932 122.056 21.7285 121.341 21.7285C120.69 21.7285 120.146 21.9465 119.696 22.3979C119.292 22.8026 119.091 23.4252 119.091 24.2814V30.8192H114.775V18.6308H119.091V20.1719C119.587 19.5959 120.053 19.1912 120.472 18.9422C121.155 18.553 122.009 18.3662 123.033 18.3662C124.337 18.3662 125.408 18.7242 126.231 19.4247C127.163 20.2342 127.628 21.4483 127.628 23.0517V30.8348Z" fill="black"/>
<path d="M143.507 25.542H134.457C134.457 27.3788 135.342 28.2972 137.096 28.2972C137.997 28.2972 138.68 27.908 139.161 27.1453H143.336C143.01 28.2505 142.514 29.1067 141.862 29.6982C140.682 30.7878 139.114 31.3326 137.143 31.3326C134.644 31.3326 132.765 30.5699 131.493 29.0444C130.546 27.908 130.08 26.5071 130.08 24.8726C130.08 22.9268 130.67 21.3391 131.85 20.1249C133.029 18.9107 134.69 18.2881 136.848 18.2881C139.502 18.2881 141.396 19.2532 142.529 21.1834C143.166 22.2731 143.492 23.5339 143.492 24.9816V25.542H143.507ZM139.471 23.0669C139.161 21.6971 138.354 20.9966 137.034 20.9966C136.305 20.9966 135.715 21.2145 135.265 21.6504C134.908 21.9929 134.675 22.4754 134.582 23.0669H139.471Z" fill="black"/>
<path d="M111.666 5.51016V9.66442H107.524V5.51016H111.666ZM117.161 0H106.028C103.812 0 102 1.81749 102 4.03886V11.1646C102 13.3859 103.812 15.2034 106.028 15.2034H113.133C115.348 15.2034 117.161 13.3859 117.161 11.1646V0Z" fill="#2C46BB"/>
</svg>
