<svg width="24" height="24" viewBox="0 0 24 24" fill="none" xmlns="http://www.w3.org/2000/svg">
<path fill-rule="evenodd" clip-rule="evenodd" d="M12 22.5C9.21523 22.5 6.54451 21.3938 4.57538 19.4246C2.60625 17.4555 1.5 14.7848 1.5 12C1.5 9.21523 2.60625 6.54451 4.57538 4.57538C6.54451 2.60625 9.21523 1.5 12 1.5C14.7848 1.5 17.4555 2.60625 19.4246 4.57538C21.3938 6.54451 22.5 9.21523 22.5 12C22.5 14.7848 21.3938 17.4555 19.4246 19.4246C17.4555 21.3938 14.7848 22.5 12 22.5ZM12 5.24537e-07C8.8174 6.63652e-07 5.76515 1.26428 3.51472 3.51472C1.26428 5.76515 -6.63652e-07 8.8174 -5.24537e-07 12C-3.85421e-07 15.1826 1.26428 18.2348 3.51472 20.4853C5.76515 22.7357 8.8174 24 12 24C15.1826 24 18.2348 22.7357 20.4853 20.4853C22.7357 18.2348 24 15.1826 24 12C24 8.8174 22.7357 5.76515 20.4853 3.51472C18.2348 1.26428 15.1826 3.85421e-07 12 5.24537e-07ZM6.75 11.25C6.55109 11.25 6.36032 11.329 6.21967 11.4697C6.07902 11.6103 6 11.8011 6 12C6 12.1989 6.07902 12.3897 6.21967 12.5303C6.36032 12.671 6.55109 12.75 6.75 12.75L15.4395 12.75L12.219 15.969C12.0782 16.1098 11.9991 16.3008 11.9991 16.5C11.9991 16.6992 12.0782 16.8902 12.219 17.031C12.3598 17.1718 12.5508 17.2509 12.75 17.2509C12.9492 17.2509 13.1402 17.1718 13.281 17.031L17.781 12.531C17.8508 12.4613 17.9063 12.3786 17.9441 12.2875C17.9819 12.1963 18.0013 12.0987 18.0013 12C18.0013 11.9013 17.9819 11.8037 17.9441 11.7126C17.9063 11.6214 17.8508 11.5387 17.781 11.469L13.281 6.969C13.1402 6.82817 12.9492 6.74905 12.75 6.74905C12.5508 6.74905 12.3598 6.82817 12.219 6.969C12.0782 7.10983 11.9991 7.30084 11.9991 7.5C11.9991 7.69916 12.0782 7.89017 12.219 8.031L15.4395 11.25L6.75 11.25Z" fill="#506EF5"/>
</svg>
