<svg width="57" height="56" viewBox="0 0 57 56" fill="none" xmlns="http://www.w3.org/2000/svg">
<circle cx="28.7548" cy="27.9716" r="27.9716" fill="#506EF5"/>
<path d="M39.8494 28.3866C39.7613 28.172 39.6116 27.9884 39.4193 27.8588C39.2269 27.7291 39.0005 27.6594 38.7686 27.6582H34.0694C33.8855 27.6593 33.7044 27.7036 33.5407 27.7874L27.6667 30.701L27.0205 28.4571C26.9388 28.2139 26.7797 28.0042 26.5676 27.8599C26.3554 27.7157 26.1019 27.6448 25.8457 27.6582H22.3213C22.1667 27.6573 22.0134 27.6869 21.8703 27.7454C21.7271 27.8039 21.597 27.89 21.4872 27.9989L20.6648 28.833H19.9717V27.6582C19.9717 27.3466 19.8479 27.0478 19.6276 26.8275C19.4073 26.6072 19.1085 26.4834 18.7969 26.4834H17.6221C17.3105 26.4834 17.0117 26.6072 16.7914 26.8275C16.571 27.0478 16.4473 27.3466 16.4473 27.6582C16.4473 27.9698 16.571 28.2686 16.7914 28.4889C17.0117 28.7092 17.3105 28.833 17.6221 28.833V38.2315C17.3105 38.2315 17.0117 38.3552 16.7914 38.5756C16.571 38.7959 16.4473 39.0947 16.4473 39.4063C16.4473 39.7178 16.571 40.0167 16.7914 40.237C17.0117 40.4573 17.3105 40.5811 17.6221 40.5811H18.7969C19.1085 40.5811 19.4073 40.4573 19.6276 40.237C19.8479 40.0167 19.9717 39.7178 19.9717 39.4063V38.2315H20.9585L25.0703 39.606C25.6731 39.8054 26.3035 39.9084 26.9383 39.9114C28.4881 39.9205 29.9788 39.3166 31.0854 38.2315L39.6027 29.7141C39.7753 29.5451 39.8917 29.3269 39.9358 29.0893C39.98 28.8518 39.9498 28.6064 39.8494 28.3866Z" fill="white"/>
<path d="M28.9946 25.3086C29.1532 25.3444 29.3142 25.368 29.4763 25.3791C29.6523 25.3913 29.829 25.3913 30.005 25.3791V26.4364L30.3339 26.5069H30.8743C30.9827 26.4972 31.0893 26.4735 31.1915 26.4364V25.2616C31.6919 25.1379 32.1378 24.8531 32.4603 24.451C32.7774 24.0209 32.9314 23.4921 32.895 22.959C32.9032 22.6629 32.8554 22.3679 32.754 22.0896C32.6753 21.8704 32.5512 21.6702 32.3898 21.5022C32.2375 21.3401 32.0588 21.205 31.8612 21.1028C31.6525 20.9908 31.4366 20.8927 31.215 20.8091L30.6511 20.6094C30.4931 20.55 30.3431 20.4711 30.2047 20.3744C30.1381 20.3241 30.085 20.2581 30.0501 20.1822C30.0153 20.1064 29.9998 20.0231 30.005 19.9397C29.9946 19.8494 30.0153 19.7582 30.0637 19.6813C30.1075 19.6153 30.1684 19.5625 30.2399 19.5286C30.3099 19.4928 30.3853 19.469 30.4632 19.4581H30.7216C31.0103 19.4528 31.2985 19.4844 31.5792 19.5521C31.8081 19.6228 32.0318 19.7091 32.2489 19.8105C32.4643 19.3588 32.6032 18.8745 32.66 18.3772L31.9082 18.1423C31.6615 18.1423 31.4265 18.0483 31.1915 18.0131V17.1672C31.0898 17.1261 30.9832 17.0984 30.8743 17.085H30.3339L30.005 17.1554V18.0601C29.5007 18.128 29.0357 18.3688 28.6892 18.7414C28.3489 19.1347 28.1723 19.6434 28.1958 20.163C28.1947 20.4105 28.2344 20.6566 28.3133 20.8913C28.3906 21.0831 28.4977 21.2615 28.6305 21.42C28.7607 21.5737 28.9155 21.7047 29.0886 21.8077C29.2744 21.9172 29.4666 22.0153 29.6643 22.1014L30.193 22.3246C30.4004 22.4023 30.5976 22.5048 30.7804 22.63C30.8555 22.6827 30.9163 22.7532 30.9573 22.8353C30.9983 22.9173 31.0183 23.0083 31.0153 23.1C31.0201 23.204 30.9977 23.3074 30.9503 23.4001C30.9029 23.4928 30.8322 23.5716 30.7451 23.6286C30.5047 23.7482 30.238 23.8048 29.9697 23.7931C29.7203 23.7893 29.4721 23.7578 29.2296 23.6991C28.9408 23.6175 28.6581 23.5154 28.3838 23.3937C28.2898 23.6756 28.2075 23.9458 28.1488 24.1925C28.0803 24.4307 28.0331 24.6744 28.0078 24.9209C28.184 25.0032 28.3603 25.0619 28.513 25.1206L28.9946 25.3086Z" fill="white"/>
</svg>
