<svg width="57" height="57" viewBox="0 0 57 57" fill="none" xmlns="http://www.w3.org/2000/svg">
<circle cx="28.7548" cy="28.7548" r="27.9716" fill="#506EF5"/>
<path d="M24.8308 18.0344C24.8308 19.46 23.6811 20.6556 22.2556 20.7476H22.2096C22.1636 20.7476 22.1176 20.7476 22.0716 20.7476C21.7497 20.7476 21.4738 20.7016 21.1979 20.6096C21.1519 20.6096 21.1059 20.5636 21.0599 20.5636C20.0483 20.1498 19.3125 19.1841 19.3125 18.0344C19.3125 17.7125 19.3585 17.3446 19.4964 17.0687C19.7264 16.4709 20.1862 15.9651 20.738 15.6432C21.1059 15.4133 21.5658 15.3213 22.0256 15.3213C22.3475 15.3213 22.6694 15.3673 22.9454 15.5052C23.7731 15.7811 24.4169 16.4709 24.6468 17.3446C24.7848 17.5286 24.8308 17.8045 24.8308 18.0344Z" fill="white"/>
<path d="M21.6578 22.402H22.1177H22.5775C22.7615 22.402 22.8994 22.2641 22.8994 22.0801V21.8502C22.8994 21.6663 22.7615 21.5283 22.5775 21.5283H22.1177H21.6578C21.4739 21.5283 21.3359 21.6663 21.3359 21.8502V22.0801C21.3359 22.2641 21.4739 22.402 21.6578 22.402Z" fill="white"/>
<path d="M26.0724 22.2646L25.6585 22.2186L24.9687 21.9887C24.9687 21.9887 24.7848 21.9427 24.5549 21.8048C24.3709 21.7128 24.187 21.8048 24.095 21.9427L24.049 22.0807L23.1293 24.334L22.6235 25.5296L22.4855 22.8624C22.4855 22.7705 22.3936 22.7245 22.3016 22.7245H22.1176H21.9337C21.8417 22.7245 21.7498 22.8165 21.7498 22.8624L21.6118 25.5296L21.106 24.334L20.1863 22.0807L20.1403 21.9427C20.0483 21.7588 19.8644 21.7128 19.6804 21.8048C19.4505 21.9427 19.2665 21.9887 19.2665 21.9887L18.5768 22.2186L18.1629 22.2646C16.9213 22.3566 15.9556 23.4143 16.0016 24.7019L16.4154 31.3238C16.5074 32.5194 17.3352 33.4851 18.4388 33.715C18.4848 34.8187 18.5768 35.8763 18.6227 36.888C18.7607 39.3712 18.8987 41.3486 18.8987 41.3486C18.8987 41.9924 19.4505 42.5442 20.0943 42.5442H22.0717H24.049C24.6928 42.5442 25.2447 41.9924 25.2447 41.3486C25.2447 41.3486 25.3826 39.3712 25.5206 36.888C25.5666 35.8763 25.6585 34.8187 25.7045 33.715C26.8082 33.4391 27.6359 32.4734 27.7279 31.3238L28.1417 24.7019C28.2797 23.4143 27.314 22.3106 26.0724 22.2646Z" fill="white"/>
<path d="M42.0297 31.0029L39.9603 29.6694C39.7304 29.5314 39.5925 29.2555 39.5925 28.9796V28.7497C39.5925 28.4737 39.5925 28.2438 39.5465 27.9679C39.5465 27.692 39.6384 27.4161 39.8684 27.2781L41.8457 25.8526C42.1217 25.6686 42.2596 25.3007 42.1676 24.9788C42.0297 24.427 41.7998 23.8752 41.5698 23.3234C41.4319 23.0015 41.11 22.8175 40.7881 22.8635L38.3968 23.0015C38.1209 23.0015 37.845 22.8635 37.7071 22.6796C37.5231 22.4037 37.3392 22.1277 37.1092 21.8978C36.9253 21.6679 36.8793 21.392 36.9713 21.1161L37.753 18.7708C37.845 18.4489 37.753 18.127 37.4771 17.8971C37.0173 17.5292 36.5574 17.2073 36.0516 16.9314C35.7757 16.7474 35.4078 16.7934 35.1319 16.9774L33.2465 18.5409C33.0165 18.7248 32.7406 18.7708 32.4647 18.6788C32.1428 18.5869 31.8209 18.4949 31.499 18.4029C31.2231 18.3569 30.9932 18.127 30.9472 17.8971L30.2114 15.5518C30.1195 15.2299 29.7976 15 29.4757 15C29.2917 15 29.1538 15 28.9698 15V23.2774C29.1078 23.2774 29.2457 23.2774 29.3837 23.2774C30.1654 23.3234 30.9472 23.5533 31.591 23.9212C31.9129 24.1051 32.2348 24.335 32.5107 24.565C33.1085 25.0708 33.5684 25.7146 33.9362 26.4044C34.1202 26.7263 34.2122 27.0942 34.3041 27.4621C34.3961 27.8759 34.4421 28.2898 34.4421 28.7497C34.4421 29.1175 34.3961 29.4394 34.3501 29.7613C34.2581 30.1292 34.1662 30.4971 34.0282 30.865C33.7063 31.6007 33.2924 32.2445 32.6946 32.7504C32.4187 33.0263 32.0968 33.2562 31.7749 33.4402C31.1311 33.854 30.3954 34.1299 29.6136 34.2219C29.3837 34.2679 29.1538 34.2679 28.9238 34.2679V42.5453C29.3377 42.5453 29.7516 42.5453 30.1195 42.4993C30.4413 42.4533 30.7173 42.2234 30.8092 41.9015L31.453 39.5102C31.545 39.2343 31.7289 39.0504 32.0049 38.9584C32.3268 38.8665 32.6486 38.7745 32.9246 38.6365C33.2005 38.5446 33.4764 38.5446 33.7063 38.7285L35.6837 40.2C35.9596 40.384 36.3275 40.43 36.6034 40.2C37.0633 39.8781 37.5231 39.5102 37.983 39.1424C38.2129 38.9124 38.3049 38.5905 38.2129 38.2686L37.3392 35.9694C37.2472 35.6935 37.2932 35.4175 37.4311 35.1876C37.6151 34.9117 37.799 34.6358 37.983 34.3599C38.1209 34.1299 38.3968 33.992 38.6727 33.992H41.156C41.4779 33.992 41.7998 33.8081 41.8917 33.4862C42.0757 32.9343 42.2596 32.3825 42.3976 31.8307C42.4436 31.5088 42.3056 31.1869 42.0297 31.0029Z" fill="white"/>
</svg>
