<svg width="57" height="57" viewBox="0 0 57 57" fill="none" xmlns="http://www.w3.org/2000/svg">
<circle cx="28.7548" cy="28.8192" r="27.9716" fill="#506EF5"/>
<path d="M40.037 19.1126C33.2581 18.4613 29.469 15.4123 29.4098 15.3531C28.9362 14.9682 28.2553 14.9682 27.7817 15.3531C27.7521 15.3827 23.963 18.4613 17.1545 19.1126C16.5032 19.1718 16 19.7342 16 20.3855C16 37.614 27.6041 42.8536 28.1073 43.0608C28.2849 43.12 28.4329 43.1792 28.6106 43.1792C28.7882 43.1792 28.9658 43.1496 29.1138 43.0608C29.617 42.8536 41.2211 37.614 41.2211 20.3855C41.1915 19.7342 40.6883 19.1718 40.037 19.1126ZM28.581 35.157C24.9991 35.157 22.1277 32.256 22.1277 28.7037C22.1277 25.1514 24.9991 22.2504 28.581 22.2504C32.1628 22.2504 35.0342 25.1514 35.0342 28.7037C35.0342 32.256 32.1628 35.157 28.581 35.157Z" fill="white"/>
<path d="M30.2388 26.5126L27.7818 28.9696L26.8049 27.9927C26.3609 27.5487 25.6208 27.5487 25.1768 27.9927C24.7327 28.4367 24.7327 29.1768 25.1768 29.6208L26.9529 31.397C27.1897 31.6338 27.4858 31.7226 27.7818 31.7226C28.0778 31.7226 28.3738 31.6042 28.6106 31.397L31.8965 28.1111C32.3405 27.6671 32.3405 26.927 31.8965 26.483C31.4228 26.0686 30.6828 26.0686 30.2388 26.5126Z" fill="white"/>
</svg>
