<svg width="35" height="35" viewBox="0 0 35 35" fill="none" xmlns="http://www.w3.org/2000/svg">
<rect width="35" height="35" rx="5" fill="#232642"/>
<path opacity="0.79913" fill-rule="evenodd" clip-rule="evenodd" d="M25.5316 11.2591C24.8569 11.6632 24.1112 11.9578 23.3147 12.1156C22.6804 11.4286 21.7736 11 20.7694 11C18.8448 11 17.2829 12.5822 17.2829 14.5341C17.2829 14.811 17.3129 15.0802 17.3727 15.3385C14.4742 15.1916 11.9046 13.7854 10.1836 11.645C9.8829 12.1689 9.71129 12.7763 9.71129 13.4233C9.71129 14.6495 10.327 15.7316 11.2629 16.3645C10.6922 16.3484 10.1533 16.1873 9.68263 15.925V15.9674C9.68263 17.6811 10.8847 19.1104 12.4817 19.4337C12.1892 19.5164 11.8808 19.5576 11.5624 19.5576C11.3376 19.5576 11.1183 19.5362 10.9057 19.4946C11.35 20.8988 12.6373 21.9208 14.164 21.9482C12.9704 22.8971 11.4658 23.4618 9.83186 23.4618C9.55088 23.4618 9.27271 23.4452 9 23.4138C10.5433 24.4151 12.3775 25 14.3462 25C20.7624 25 24.27 19.6157 24.27 14.9446C24.27 14.7904 24.2673 14.6374 24.2606 14.4869C24.9424 13.988 25.5345 13.366 26 12.6577C25.3755 12.9378 24.703 13.1291 23.9973 13.2135C24.7182 12.7763 25.2707 12.0837 25.5316 11.2591Z" fill="white"/>
</svg>
