<svg width="39" height="25" viewBox="0 0 39 25" fill="none" xmlns="http://www.w3.org/2000/svg">
<path d="M38.2613 0.723633V23.8071H0.72168V15.9325H12.91V8.32806H25.1079V0.723633H38.2613Z" fill="#11142D"/>
<path d="M37.5396 0.724501C37.5396 1.48687 37.5396 2.25407 37.5396 3.01644C37.5396 4.85965 37.5396 6.70285 37.5396 8.54123C37.5396 10.7608 37.5396 12.9852 37.5396 15.2047C37.5396 17.1252 37.5396 19.0456 37.5396 20.966C37.5396 21.5981 37.5396 22.235 37.5396 22.8671C37.5396 23.1662 37.5203 23.475 37.5396 23.7742C37.5396 23.7887 37.5396 23.7983 37.5396 23.8128C37.7808 23.5715 38.0221 23.3303 38.2634 23.089C37.9304 23.089 37.5927 23.089 37.2597 23.089C36.3478 23.089 35.4407 23.089 34.5287 23.089C33.1825 23.089 31.8363 23.089 30.4901 23.089C28.8495 23.089 27.2041 23.089 25.5636 23.089C23.7638 23.089 21.964 23.089 20.1643 23.089C18.35 23.089 16.5309 23.089 14.7167 23.089C13.0231 23.089 11.3294 23.089 9.63581 23.089C8.20274 23.089 6.7745 23.089 5.34143 23.089C4.31368 23.089 3.2811 23.089 2.25334 23.089C1.766 23.089 1.27384 23.0697 0.786498 23.089C0.767197 23.089 0.743072 23.089 0.723771 23.089C0.965028 23.3303 1.20628 23.5715 1.44754 23.8128C1.44754 21.516 1.44754 19.2144 1.44754 16.9177C1.44754 16.5896 1.44754 16.2663 1.44754 15.9382C1.20628 16.1794 0.965028 16.4207 0.723771 16.6619C2.09894 16.6619 3.4741 16.6619 4.84927 16.6619C7.03988 16.6619 9.22567 16.6619 11.4163 16.6619C11.9133 16.6619 12.4151 16.6619 12.9121 16.6619C13.3029 16.6619 13.6358 16.329 13.6358 15.9382C13.6358 13.7138 13.6358 11.4942 13.6358 9.26982C13.6358 8.95619 13.6358 8.64256 13.6358 8.33375C13.3946 8.575 13.1533 8.81626 12.9121 9.05752C14.2872 9.05752 15.6672 9.05752 17.0424 9.05752C19.2282 9.05752 21.414 9.05752 23.5998 9.05752C24.1016 9.05752 24.6034 9.05752 25.11 9.05752C25.5009 9.05752 25.8338 8.72458 25.8338 8.33375C25.8338 6.10936 25.8338 3.88979 25.8338 1.6654C25.8338 1.35177 25.8338 1.03814 25.8338 0.729326C25.5925 0.970583 25.3513 1.21184 25.11 1.4531C26.5962 1.4531 28.0871 1.4531 29.5733 1.4531C31.928 1.4531 34.2778 1.4531 36.6325 1.4531C37.1777 1.4531 37.7181 1.4531 38.2634 1.4531C38.6397 1.4531 39.0064 1.12016 38.9871 0.729326C38.9678 0.33849 38.6687 0.0055552 38.2634 0.0055552C36.7772 0.0055552 35.2863 0.0055552 33.8001 0.0055552C31.4454 0.0055552 29.0956 0.0055552 26.7409 0.0055552C26.1957 0.0055552 25.6553 0.0055552 25.11 0.0055552C24.7192 0.0055552 24.3863 0.33849 24.3863 0.729326C24.3863 2.95372 24.3863 5.17328 24.3863 7.39767C24.3863 7.71131 24.3863 8.02494 24.3863 8.33375C24.6275 8.09249 24.8688 7.85123 25.11 7.60998C23.7349 7.60998 22.3549 7.60998 20.9797 7.60998C18.7939 7.60998 16.6081 7.60998 14.4223 7.60998C13.9205 7.60998 13.4187 7.60998 12.9121 7.60998C12.5212 7.60998 12.1883 7.94291 12.1883 8.33375C12.1883 10.5581 12.1883 12.7777 12.1883 15.0021C12.1883 15.3157 12.1883 15.6294 12.1883 15.9382C12.4296 15.6969 12.6708 15.4557 12.9121 15.2144C11.5369 15.2144 10.1617 15.2144 8.78658 15.2144C6.59597 15.2144 4.41018 15.2144 2.21956 15.2144C1.72258 15.2144 1.22076 15.2144 0.723771 15.2144C0.332935 15.2144 0 15.5473 0 15.9382C0 18.2349 0 20.5365 0 22.8333C0 23.1614 0 23.4847 0 23.8128C0 24.2036 0.332935 24.5366 0.723771 24.5366C1.05671 24.5366 1.39447 24.5366 1.7274 24.5366C2.63935 24.5366 3.54648 24.5366 4.45843 24.5366C5.80464 24.5366 7.15086 24.5366 8.49707 24.5366C10.1376 24.5366 11.783 24.5366 13.4235 24.5366C15.2233 24.5366 17.0231 24.5366 18.8229 24.5366C20.6371 24.5366 22.4562 24.5366 24.2705 24.5366C25.9641 24.5366 27.6577 24.5366 29.3513 24.5366C30.7844 24.5366 32.2126 24.5366 33.6457 24.5366C34.6735 24.5366 35.706 24.5366 36.7338 24.5366C37.2211 24.5366 37.7133 24.5462 38.2006 24.5366C38.2199 24.5366 38.2441 24.5366 38.2634 24.5366C38.6542 24.5366 38.9871 24.2036 38.9871 23.8128C38.9871 23.0504 38.9871 22.2832 38.9871 21.5209C38.9871 19.6777 38.9871 17.8344 38.9871 15.9961C38.9871 13.7765 38.9871 11.5521 38.9871 9.33255C38.9871 7.41215 38.9871 5.49174 38.9871 3.57133C38.9871 2.63526 39.0161 1.69918 38.9871 0.763101C38.9871 0.748626 38.9871 0.738976 38.9871 0.724501C38.9871 0.34814 38.6542 -0.0185708 38.2634 0.000729762C37.8725 0.0152052 37.5396 0.314364 37.5396 0.724501Z" fill="#11142D"/>
</svg>
