<svg width="27" height="34" viewBox="0 0 27 34" fill="none" xmlns="http://www.w3.org/2000/svg">
<path d="M20.2773 16.1357C18.3855 17.9205 15.8153 18.9914 13.031 18.9914C10.2467 18.9914 7.67662 17.9205 5.78472 16.1357C2.2865 18.9557 0.00195312 23.3464 0.00195312 26.7375C0.00195312 32.1276 1.96524 33.9124 13.031 33.9124C24.0968 33.9124 26.0601 32.1276 26.0601 26.7375C26.0601 23.3464 23.7756 18.9557 20.2773 16.1357Z" fill="#11142D"/>
<path d="M13.034 16.6344C17.6275 16.6344 21.3512 12.9107 21.3512 8.31719C21.3512 3.72373 17.6275 0 13.034 0C8.44053 0 4.7168 3.72373 4.7168 8.31719C4.7168 12.9107 8.44053 16.6344 13.034 16.6344Z" fill="#11142D"/>
</svg>
